<svg xmlns="http://www.w3.org/2000/svg" viewBox="0 0 96 96" role="img" aria-label="Legal scales">
  <rect width="96" height="96" rx="18" fill="#0f172a"/>
  <path d="M48 20v52" stroke="#e2e8f0" stroke-width="5" stroke-linecap="round"/>
  <path d="M30 31h36" stroke="#e2e8f0" stroke-width="5" stroke-linecap="round"/>
  <path d="M48 25c-5 0-9 4-9 9h18c0-5-4-9-9-9Z" fill="#38bdf8"/>
  <path d="M24 35 13 57h22L24 35Z" fill="none" stroke="#e2e8f0" stroke-width="4" stroke-linejoin="round"/>
  <path d="M72 35 61 57h22L72 35Z" fill="none" stroke="#e2e8f0" stroke-width="4" stroke-linejoin="round"/>
  <path d="M13 57c2 8 20 8 22 0M61 57c2 8 20 8 22 0" stroke="#38bdf8" stroke-width="4" stroke-linecap="round"/>
  <path d="M35 76h26M28 84h40" stroke="#e2e8f0" stroke-width="5" stroke-linecap="round"/>
</svg>
